<svg id="Layer_1" data-name="Layer 1" xmlns="http://www.w3.org/2000/svg" viewBox="0 0 404.44 547.75"><defs><style>.cls-1{fill:#6167af;fill-rule:evenodd;}</style></defs><title>logo_bezteksta</title><path class="cls-1" d="M283,320.19a328.11,328.11,0,0,0-58.63-75.13,6.57,6.57,0,0,1-1.05-8.31L243.21,205a6.63,6.63,0,0,1,8.84-2.28c40,22.17,67,56.74,78.78,100.93a6.63,6.63,0,0,1-4.36,8l-35.66,11.58a6.58,6.58,0,0,1-7.81-3m-95.18,94.07-54.67-72.14-.15-.2a202.69,202.69,0,0,1-17.06-29.3L133.37,307a6.58,6.58,0,0,1,7.81,3,328.15,328.15,0,0,0,58.64,75.13,6.57,6.57,0,0,1,1,8.31ZM298.69,23.76c111.69,0,202.22,90.54,202.22,202.22a201.33,201.33,0,0,1-36.59,116L353.24,488.6c-14,18.43-31.42,31.49-54.55,31.49S258.12,507,244.15,488.6l-41.3-54.5,106.26-83,16.41,21a6.63,6.63,0,0,0,10.44,0,34.11,34.11,0,0,0,0-42l47.45-37a64.2,64.2,0,0,0,11.08-89.83l-29.7-38A64.17,64.17,0,0,0,275,154.2l-47.45,37a34.13,34.13,0,0,0-40.76-10.17,6.64,6.64,0,0,0-2.53,10.14l16.41,21-95,74.16A201.79,201.79,0,0,1,96.48,226C96.48,114.3,187,23.76,298.69,23.76Z" transform="translate(-96.48 -23.76)"/><path class="cls-1" d="M396.13,521.44c19.3,5.31,31,12.21,31,19.75,0,16.75-57.48,30.32-128.4,30.32S170.3,557.94,170.3,541.19c0-7.54,11.66-14.44,31-19.75-3.71,2.52-5.73,5.21-5.73,8,0,13.46,46.19,24.37,103.16,24.37s103.17-10.91,103.17-24.37c0-2.81-2-5.5-5.73-8" transform="translate(-96.48 -23.76)"/></svg>