<svg id="Layer_1" data-name="Layer 1" xmlns="http://www.w3.org/2000/svg" viewBox="0 0 536.08 130.65"><defs><style>.cls-1,.cls-2{fill:#6167af;}.cls-1{fill-rule:evenodd;}.cls-2{font-size:90px;font-family:SegoeUI-Bold, Segoe UI;font-weight:700;}.cls-3{font-family:SegoeUI, Segoe UI;font-weight:400;}</style></defs><title>sova pokraj</title><path class="cls-1" d="M72.62,76.07A75.82,75.82,0,0,0,59.09,58.74a1.52,1.52,0,0,1-.24-1.92l4.59-7.33a1.53,1.53,0,0,1,2-.52A36.79,36.79,0,0,1,83.65,72.25a1.53,1.53,0,0,1-1,1.85l-8.22,2.67a1.53,1.53,0,0,1-1.8-.7m-22,21.69L38.06,81.12s0,0,0,0a46.35,46.35,0,0,1-3.93-6.76l4-1.3a1.51,1.51,0,0,1,1.8.7A75.66,75.66,0,0,0,53.43,91,1.52,1.52,0,0,1,53.67,93ZM76.24,7.7a46.64,46.64,0,0,1,38.19,73.4L88.82,114.91c-3.22,4.25-7.25,7.26-12.58,7.26s-9.36-3-12.58-7.26l-9.53-12.57L78.64,83.21l3.78,4.85a1.49,1.49,0,0,0,1.21.58,1.46,1.46,0,0,0,1.2-.58,7.87,7.87,0,0,0,0-9.69l10.94-8.54a14.81,14.81,0,0,0,2.56-20.72l-6.85-8.77a14.81,14.81,0,0,0-20.72-2.56L59.83,46.33A7.87,7.87,0,0,0,50.43,44a1.46,1.46,0,0,0-.86,1,1.51,1.51,0,0,0,.27,1.31l3.79,4.84L31.72,68.27A46.66,46.66,0,0,1,76.24,7.7Z" transform="translate(-29.6 -7.7)"/><path class="cls-1" d="M98.71,122.48c4.45,1.23,7.14,2.82,7.14,4.56,0,3.86-13.26,7-29.61,7s-29.62-3.13-29.62-7c0-1.74,2.69-3.33,7.14-4.56a2.44,2.44,0,0,0-1.32,1.85c0,3.11,10.66,5.62,23.8,5.62S100,127.44,100,124.33a2.44,2.44,0,0,0-1.32-1.85" transform="translate(-29.6 -7.7)"/><text class="cls-2" transform="translate(108.07 91.89)">spot<tspan class="cls-3" x="185.45" y="0">picker</tspan></text></svg>