<svg id="Layer_1" data-name="Layer 1" xmlns="http://www.w3.org/2000/svg" viewBox="0 0 577.67 560.21"><defs><style>.cls-1,.cls-2{fill:#6167af;}.cls-1{fill-rule:evenodd;}.cls-2{font-size:122.23px;font-family:SegoeUI-Bold, Segoe UI;font-weight:700;}.cls-3{font-family:SegoeUI, Segoe UI;font-weight:400;}</style></defs><title>spotpicker sa slovima</title><path class="cls-1" d="M287.21,245.15a240,240,0,0,0-42.9-55,4.81,4.81,0,0,1-.77-6.08l14.56-23.26a4.85,4.85,0,0,1,6.46-1.67c29.27,16.22,49,41.52,57.65,73.86a4.85,4.85,0,0,1-3.19,5.86l-26.09,8.47a4.81,4.81,0,0,1-5.72-2.21M217.57,314l-40-52.79-.1-.14A147.53,147.53,0,0,1,165,239.61l12.76-4.14a4.8,4.8,0,0,1,5.71,2.22,240.24,240.24,0,0,0,42.91,55,4.82,4.82,0,0,1,.76,6.08ZM298.69,28.25A148,148,0,0,1,419.88,261.12L338.61,368.38c-10.22,13.48-23,23-39.92,23s-29.69-9.56-39.91-23L228.56,328.5l77.76-60.69,12,15.37a4.84,4.84,0,0,0,7.64,0,25,25,0,0,0,0-30.74l34.72-27.1a47,47,0,0,0,8.1-65.72l-21.73-27.84a47,47,0,0,0-65.73-8.1l-34.72,27.1a24.94,24.94,0,0,0-29.82-7.44,4.85,4.85,0,0,0-1.85,7.41l12,15.38L157.45,220.4A148.05,148.05,0,0,1,298.69,28.25Z" transform="translate(-8.8 -28.25)"/><path class="cls-1" d="M370,392.41c14.12,3.88,22.65,8.93,22.65,14.45,0,12.25-42.06,22.18-93.95,22.18s-93.94-9.93-93.94-22.18c0-5.52,8.53-10.57,22.65-14.45-2.71,1.84-4.19,3.81-4.19,5.86,0,9.85,33.8,17.83,75.48,17.83s75.49-8,75.49-17.83c0-2-1.48-4-4.19-5.86" transform="translate(-8.8 -28.25)"/><text class="cls-2" transform="translate(0 507.57)">spot<tspan class="cls-3" x="251.87" y="0">picker</tspan></text></svg>